<svg width="748" height="160" viewBox="0 0 748 160" fill="none" xmlns="http://www.w3.org/2000/svg">
<path d="M526.56 140.58C523 140.58 520.08 140.06 517.8 139.01V133.9C520.82 134.67 523.7 135.06 526.45 135.06C535.81 135.06 540.5 129.95 540.5 119.74V34.3H546.42V119.16C546.42 133.44 539.8 140.58 526.57 140.58H526.56ZM620.59 87.53C620.59 97.82 618.09 105.87 613.1 111.68C608.11 117.45 601.22 120.33 592.44 120.33C586.91 120.33 582.03 118.99 577.81 116.33C573.59 113.66 570.36 109.83 568.12 104.84C565.88 99.85 564.75 94.08 564.75 87.54C564.75 77.25 567.25 69.24 572.24 63.51C577.23 57.74 584.08 54.86 592.79 54.86C601.5 54.86 608.25 57.78 613.16 63.62C618.11 69.42 620.59 77.4 620.59 87.53ZM570.79 87.53C570.79 96.2 572.69 102.97 576.48 107.84C580.31 112.68 585.71 115.1 592.67 115.1C599.63 115.1 605.01 112.68 608.81 107.84C612.64 102.96 614.56 96.19 614.56 87.53C614.56 78.87 612.63 72.07 608.76 67.27C604.93 62.47 599.53 60.07 592.57 60.07C585.61 60.07 580.23 62.47 576.43 67.27C572.68 72.03 570.8 78.78 570.8 87.53H570.79ZM664.7 54.85C673.52 54.85 680.16 57.64 684.61 63.21C689.1 68.74 691.34 76.85 691.34 87.53C691.34 98.21 688.98 106.1 684.26 111.79C679.58 117.48 672.98 120.32 664.47 120.32C659.98 120.32 655.94 119.39 652.34 117.53C648.74 115.67 645.9 113.04 643.81 109.64H643.29L641.67 119.16H638.07V28.85H643.82V51.54C643.82 54.95 643.74 58.08 643.59 60.94L643.42 65.87H643.83C646.23 62.08 649.11 59.29 652.48 57.51C655.89 55.73 659.97 54.84 664.73 54.84L664.7 54.85ZM664.58 60.07C657.15 60.07 651.83 62.2 648.62 66.45C645.41 70.71 643.8 77.73 643.8 87.52V88.51C643.8 98.03 645.46 104.86 648.79 109C652.16 113.14 657.38 115.21 664.46 115.21C671.54 115.21 676.53 112.81 680.02 108.01C683.5 103.17 685.24 96.31 685.24 87.41C685.24 69.19 678.35 60.07 664.58 60.07ZM747.99 102.73C747.99 108.38 745.84 112.73 741.55 115.79C737.25 118.81 731.16 120.32 723.27 120.32C714.83 120.32 708.14 119.02 703.19 116.43V110.22C709.54 113.39 716.23 114.98 723.27 114.98C729.5 114.98 734.22 113.95 737.43 111.9C740.68 109.81 742.31 107.04 742.31 103.6C742.31 100.43 741.01 97.76 738.42 95.59C735.87 93.42 731.65 91.3 725.77 89.21C719.46 86.93 715.03 84.97 712.48 83.35C709.93 81.69 707.99 79.83 706.68 77.78C705.4 75.69 704.76 73.16 704.76 70.18C704.76 65.46 706.73 61.73 710.68 58.98C714.67 56.23 720.22 54.86 727.34 54.86C734.46 54.86 740.61 56.14 746.73 58.69L744.58 63.91C738.39 61.36 732.64 60.08 727.34 60.08C722.04 60.08 718.11 60.93 715.09 62.63C712.07 64.33 710.56 66.69 710.56 69.71C710.56 73 711.72 75.63 714.04 77.6C716.4 79.57 720.99 81.78 727.8 84.22C733.49 86.27 737.63 88.13 740.22 89.79C742.81 91.41 744.75 93.27 746.02 95.36C747.34 97.45 747.99 99.91 747.99 102.73Z" fill="#1F1F1F"/>
<path fill-rule="evenodd" clip-rule="evenodd" d="M37.38 82.45H57.05V107.14H32.23C28.95 106.93 26.06 106.08 23.43 104.05C20.6 101.85 19.3 99.28 19.28 95.9C19.28 95.87 19.28 95.84 19.28 95.81C19.36 91.32 22.39 82.45 37.39 82.45H37.38ZM8.85001 116.23C14.31 120.53 21.75 122.57 30.99 122.57H37.7H72.96C74.32 122.57 75.42 121.45 75.42 120.1L75.4 95.82L75.38 70.36C75.38 59.03 72.86 50.34 67.43 44.53C61.78 38.5 51.05 35.64 40.94 35.64C30.83 35.64 20.49 38.24 11.89 43.35C11.33 43.68 11 44.28 11 44.93V45.04L11.77 57.52C11.89 59.21 13.88 59.76 15.4 58.8C27.84 51.07 42.77 49.64 50.32 53.44C55.63 56.12 57.04 61.77 57.04 65.42V67.24H36.25C27.34 67.24 0 70.41 0 95.67V96.09C0 104.71 2.96 111.66 8.84 116.24L8.85001 116.23ZM193.64 52.2C201.95 52.2 211.7 56.95 211.7 70.48H173.35C173.35 64.17 178.6 52.2 193.64 52.2ZM194.65 122.25C208.33 122.76 217.49 120.4 224.34 116.44C225.69 115.67 225.98 114.73 225.98 112.25V101.18C225.98 98.91 224.62 97.88 222.51 99.23C215.12 103.94 206.22 106.82 194.89 105.92C183.48 105.03 174.08 97.03 173.17 85.72H229.49C230.73 85.72 231.72 84.79 231.79 83.43C232.72 68.02 228.29 35.62 193.63 35.62C168.28 35.62 157.31 52.65 153.61 67.03C152.63 70.85 152.16 74.97 152.16 78.91C152.16 88.23 154.77 97.81 160.32 105.4C168.35 116.37 181.22 121.72 194.65 122.23V122.25ZM263.01 68.98C266.1 59.67 273.51 52.18 283.74 52.18C306.66 52.18 307.43 75.57 307.43 78.93C307.43 82.29 306.66 105.69 283.74 105.69C273.5 105.69 266.1 98.2 263.01 88.88C262 85.92 261.34 82.29 261.34 78.93C261.34 75.57 262 71.94 263.01 68.98ZM283.74 122.25C292.55 122.21 301.1 119.7 308.2 114.9V125.38C308.2 139.61 295.75 142.19 287.8 142.68C282.46 143.01 274.86 142.28 271.44 141.77C269.26 141.46 267.72 141.83 267.72 144.11V156.72C267.68 157.65 268.44 158.65 269.97 158.78C288.44 160.37 300.89 160.03 310.25 154.71C316.91 150.93 321.48 144.67 323.88 137.38C325.63 132.13 326.24 125.67 326.24 120.06V78.93C326.24 69.48 323.72 60.19 318.07 52.44C310.04 41.47 297.2 35.66 283.74 35.62C270.28 35.67 257.45 41.48 249.4 52.44C238.42 67.46 238.41 90.39 249.4 105.42C257.45 116.39 270.28 122.2 283.74 122.25ZM341.13 122.57C339.78 122.57 338.67 121.45 338.67 120.1V70.98C338.67 58.17 344.48 50.82 349.17 46.14C355.56 39.79 364.88 35.62 375.25 35.62C376.8 35.62 382.5 35.87 385.14 36.56H385.15C387.03 37.1 387.27 38.11 387.27 40.66V50.67C387.3 52.89 385.85 53.91 383.9 53.5C367.77 50.18 357.87 57.34 357.87 72.25L357.85 120.11C357.85 121.46 356.75 122.58 355.37 122.58H341.11L341.13 122.57ZM90.89 122.57C89.53 122.57 88.43 121.45 88.43 120.1V2.87C88.43 1.51 89.53 0.399994 90.89 0.399994H105.16C106.5 0.399994 107.62 1.51 107.62 2.87V120.1C107.62 121.45 106.5 122.57 105.16 122.57H90.89ZM124.4 122.57C123.03 122.57 121.94 121.45 121.94 120.1V2.87C121.94 1.51 123.03 0.399994 124.4 0.399994H138.66C140.01 0.399994 141.13 1.51 141.13 2.87V120.1C141.13 121.45 140.01 122.57 138.66 122.57H124.4ZM412.24 68.98C415.35 59.67 422.74 52.23 432.98 52.18C443.21 52.23 450.61 59.67 453.74 68.98C454.72 71.94 455.39 75.56 455.39 78.93C455.39 82.3 454.73 85.91 453.74 88.88C450.61 98.19 443.21 105.63 432.98 105.69C422.74 105.63 415.35 98.2 412.24 88.88C411.25 85.91 410.59 82.29 410.59 78.93C410.59 75.57 411.25 71.94 412.24 68.98ZM432.98 122.25C446.43 122.2 459.28 116.39 467.31 105.42C472.87 97.83 475.47 88.25 475.47 78.93C475.47 69.61 472.87 60.03 467.31 52.44C459.28 41.48 446.43 35.66 432.98 35.62C419.51 35.67 406.7 41.48 398.65 52.44C393.1 60.04 390.47 69.61 390.47 78.93C390.47 88.25 393.1 97.83 398.65 105.42C406.7 116.39 419.52 122.2 432.98 122.25Z" fill="#FF5000"/>
</svg>
